<svg version="1.2" xmlns="http://www.w3.org/2000/svg" viewBox="0 0 195 50" width="195" height="50">
	<title>btn organize</title>
	<style>
		.s0 { fill: #1bc133 } 
		.s1 { fill: #38e655 } 
		.s2 { fill: #353535 } 
	</style>
	<g id="btn organize">
		<g id="Layer">
			<path id="Layer" class="s0" d="m194 11v32.2h-4.8v4.8h-48.3h-93.3h-41.8v-4.8h-4.8v-32.2h4.8v-4.8h41.8h93.3h48.3v4.8z" />
			<path id="Layer" class="s1" d="m194 6.2v32.1h-4.8v4.9h-48.3h-93.3h-41.8v-4.9h-4.8v-32.1h4.8v-4.8h41.8h93.3h48.3v4.8z" />
		</g>
		<g id="Layer">
			<g id="Layer">
				<path id="Layer" fill-rule="evenodd" class="s2" d="m47.5 22.4c0 2.5-1.5 5-4.8 5c-3.3 0-4.9-2.5-4.9-5c0-2.9 2-5 4.9-5c3.2 0.1 4.8 2.5 4.8 5zm-4.8-3.6c-2.2 0-3.4 1.6-3.4 3.7c0 1.8 1.1 3.6 3.4 3.6c2.4 0 3.4-1.8 3.4-3.6c0-1.8-1-3.7-3.4-3.7z" />
				<path id="Layer" fill-rule="evenodd" class="s2" d="m58.6 23.6h-1.6v2.3h1.2v1.3h-3.7v-1.3h1.1v-7h-1.1v-1.2h5.3c1.8 0 3.3 0.8 3.3 2.9c0 1.8-1.1 2.7-2.9 3l2.1 2.3h1.2v1.3h-2.8v-1.2zm1.1-1.2c1.3 0 1.9-0.8 1.9-1.8c0-1.1-0.8-1.6-1.9-1.6h-2.7v3.4z" />
				<path id="Layer" class="s2" d="m78.6 18.6c0 0.6 0 1.3 0 2h-1.3l-0.1-1.4c-0.6-0.3-1.4-0.4-2-0.4c-2.3 0-3.5 1.7-3.5 3.7c0 1.8 1 3.5 3.6 3.5c0.9 0 1.5-0.2 2.2-0.9v-1.8h-2.8v-1.2h4v3.5q-1.3 1.7-3.5 1.7c-3.5 0-5-2.4-5-4.9c0-2.8 1.8-5.1 5-5.1c1.3 0.2 2.5 0.5 3.4 1.3z" />
				<path id="Layer" fill-rule="evenodd" class="s2" d="m89.4 18.9h-1v-1.2h3.2l3.6 8.2h0.9v1.3h-3.6v-1.3h1.1c-0.2-0.5-0.4-1.1-0.5-1.4h-4.8c-0.1 0.3-0.4 0.9-0.6 1.4h1.1v1.3h-3.5v-1.3h0.8zm3.2 4.2c-0.5-1.1-1-2.3-1.7-4.1c-0.8 1.8-1.4 3-1.9 4.1z" />
				<path id="Layer" class="s2" d="m102.7 27.1v-1.2h1.1v-7h-1.2v-1.3h2.2l5.6 6.9v-5.6h-1.1v-1.3h3.6v1.3h-1v8.2h-1l-5.7-6.8v5.6h1.1v1.2z" />
				<path id="Layer" class="s2" d="m123.8 25.9v1.3h-3.8v-1.3h1.1v-7h-1.1v-1.3h3.8v1.3h-1.2v6.9h1.2z" />
				<path id="Layer" class="s2" d="m132.3 20.3h-1.3v-2.6h6.8v0.6l-5.1 7.6h3.9l0.1-1.6h1.3v3h-7.3v-0.8l4.9-7.4h-3.3z" />
				<path id="Layer" class="s2" d="m151.8 25.8v-1.4h1.3v2.7h-8v-1.3h1.1v-6.9h-1.1v-1.2h7.8v2.7h-1.3l-0.1-1.5h-3.9v2.7h4v1.4h-4v2.8z" />
			</g>
		</g>
	</g>
</svg>