<svg version="1.2" xmlns="http://www.w3.org/2000/svg" viewBox="0 0 186 198" width="186" height="198">
	<title>clock</title>
	<style>
		.s0 { fill: #e7dfef } 
		.s1 { fill: #ffffff } 
	</style>
	<g id="clock">
		<path id="Layer" class="s0" d="m186 84.9v4.9v5v5v5v4.9v5v5h-4.9v4.9v5v4.9h-5v5v5h-4.9h-0.1v4.9v5h-4.3v2.9v5h-5.1v5.1h-5.1v0.1v5h-4.5h-0.5v5.1h-5.2v5.1h-5h-5.1v5.1h-5.1h-5.1v0.1v5h-5.1h-5.1h-5.1v5.1h-5.1h-5h-5.2h-5h-5.2h-5h-5.1v-5.1h-5.1h-5.1h-5.1v-5v-0.1h-5.1h-5.1v-5.1h-5.1h-5v-5.1h-5.2v-5.1h-5v-5v-0.1h-5.1v-5.1h-5.1v-5v-2.9h-4.3v-5v-4.9h-0.1h-4.9v-5v-5h-4.9v-4.9v-5v-4.9h-0.1h-4.9v-5v-5v-4.9v-5v-5v-5v-4.9h4.9h0.1v-5v-5v-4.9h4.9v-5v-5h4.9h0.1v-4.9v-5h4.3v-2.8v-5.1h5.1v-5.1h5.1v-5.1h5v-5.1h5.2v-5.1h5h5.1v-5.1h5.1h5.1v-0.1v-5h5.1h5.1h5.1v-5.1h5.1h5h5.2h5h5.2h5h5.1v5.1h5.1h5.1h5.1v5v0.1h5.1h5.1v5.1h5.1h5v5.1h5.2v5.1h0.5h4.5v5.1h5.1v5.1h5.1v5.1v2.8h4.3v5v4.9h0.1h4.9v5v5h5v4.9v5v5z" />
		<path id="Layer" class="s1" d="m186 78.3v5v5v4.9v5v5v5v4.9h-4.9v5v5v4.9h-5v5v5h-4.9h-0.1v4.9v5h-4.3v2.9v5h-5.1v5.1h-5.1v0.1v5h-4.5h-0.5v5.1h-5.2v5.1h-5h-5.1v5.1h-5.1h-5.1v0.1v5h-5.1h-5.1h-5.1v5.1h-5.1h-5h-5.2h-5h-5.2h-5h-5.1v-5.1h-5.1h-5.1h-5.1v-5v-0.1h-5.1h-5.1v-5.1h-5.1h-5v-5.1h-5.2v-5.1h-5v-5v-0.1h-5.1v-5.1h-5.1v-5v-2.9h-4.3v-5v-4.9h-0.1h-4.9v-5v-5h-4.9v-4.9v-5v-5h-0.1h-4.9v-4.9v-5v-5v-5v-4.9v-5v-5h4.9h0.1v-4.9v-5v-4.9h4.9v-5v-5h4.9h0.1v-4.9v-5h4.3v-2.8v-5.1h5.1v-5.1h5.1v-5.1h5v-5.1h5.2v-5.1h5h5.1v-5.1h5.1h5.1v-0.1v-5h5.1h5.1h5.1v-5.1h5.1h5h5.2h5h5.2h5h5.1v5.1h5.1h5.1h5.1v5v0.1h5.1h5.1v5.1h5.1h5v5.1h5.2v5.1h0.5h4.5v5.1h5.1v5.1h5.1v5.1v2.8h4.3v5v4.9h0.1h4.9v5v5h5v4.9v5v4.9z" />
		<path id="Layer" class="s0" d="m85.6 10.2h-5v-5.1h5z" />
		<path id="Layer" class="s0" d="m90.7 10.2h-5.1v-5.1h5.1z" />
		<path id="Layer" class="s0" d="m95.7 10.2h-5v-5.1h5z" />
		<path id="Layer" class="s0" d="m100.8 10.2h-5.1v-5.1h5.1z" />
		<path id="Layer" class="s0" d="m105.9 10.2h-5.1v-5.1h5.1z" />
		<path id="Layer" class="s0" d="m110.9 15.3h-5v-5.1h5z" />
		<path id="Layer" class="s0" d="m116 15.3h-5.1v-5.1h5.1z" />
		<path id="Layer" class="s0" d="m121 15.3h-5v-5.1h5z" />
		<path id="Layer" class="s0" d="m126.1 20.3h-5.1v-5h5.1z" />
		<path id="Layer" class="s0" d="m131.1 20.3h-5v-5h5z" />
		<path id="Layer" class="s0" d="m136.2 25.4h-5.1v-5.1h5.1z" />
		<path id="Layer" class="s0" d="m141.2 25.4h-5v-5.1h5z" />
		<path id="Layer" class="s0" d="m146.3 30.5h-5.1v-5.1h5.1z" />
		<path id="Layer" class="s0" d="m151.3 35.5h-5v-5h5z" />
		<path id="Layer" class="s0" d="m156.4 40.6h-5.1v-5.1h5.1z" />
		<path id="Layer" class="s0" d="m161.4 45.6h-5v-5h5z" />
		<path id="Layer" class="s0" d="m166.5 52.9h-5.1v-7.3h5.1z" />
		<path id="Layer" class="s0" d="m166.5 57.9h-5.1v-5h5.1z" />
		<path id="Layer" class="s0" d="m171.6 63h-5.1v-5.1h5.1z" />
		<path id="Layer" class="s0" d="m171.6 68.1h-5.1v-5.1h5.1z" />
		<path id="Layer" class="s0" d="m176.6 73.1h-5v-5h5z" />
		<path id="Layer" class="s0" d="m176.6 78.2h-5v-5.1h5z" />
		<path id="Layer" class="s0" d="m176.6 83.3h-5v-5.1h5z" />
		<path id="Layer" class="s0" d="m181.7 88.3h-5.1v-5h5.1z" />
		<path id="Layer" class="s0" d="m181.7 93.4h-5.1v-5.1h5.1z" />
		<path id="Layer" class="s0" d="m181.7 98.5h-5.1v-5.1h5.1z" />
		<path id="Layer" class="s0" d="m100.8 5.1h5.1v5.1h-5.1z" />
		<path id="Layer" class="s0" d="m95.8 5.1h5v5.1h-5z" />
		<path id="Layer" class="s0" d="m90.7 5.1h5.1v5.1h-5.1z" />
		<path id="Layer" class="s0" d="m85.7 5.1h5v5.1h-5z" />
		<path id="Layer" class="s0" d="m80.6 5.1h5.1v5.1h-5.1z" />
		<path id="Layer" class="s0" d="m75.6 10.2h5v5h-5z" />
		<path id="Layer" class="s0" d="m70.5 10.2h5.1v5h-5.1z" />
		<path id="Layer" class="s0" d="m65.4 10.2h5.1v5h-5.1z" />
		<path id="Layer" class="s0" d="m60.4 15.2h5v5.1h-5z" />
		<path id="Layer" class="s0" d="m55.3 15.2h5.1v5.1h-5.1z" />
		<path id="Layer" class="s0" d="m50.3 20.3h5v5.1h-5z" />
		<path id="Layer" class="s0" d="m45.2 20.3h5.1v5.1h-5.1z" />
		<path id="Layer" class="s0" d="m40.2 25.4h5v5h-5z" />
		<path id="Layer" class="s0" d="m35.1 30.4h5.1v5.1h-5.1z" />
		<path id="Layer" class="s0" d="m30.1 35.5h5v5.1h-5z" />
		<path id="Layer" class="s0" d="m25 40.6h5.1v5h-5.1z" />
		<path id="Layer" class="s0" d="m20 45.6h5v7.3h-5z" />
		<path id="Layer" class="s0" d="m20 52.9h5v5h-5z" />
		<path id="Layer" class="s0" d="m14.9 57.9h5.1v5.1h-5.1z" />
		<path id="Layer" class="s0" d="m14.9 63h5.1v5h-5.1z" />
		<path id="Layer" class="s0" d="m9.9 68h5v5.1h-5z" />
		<path id="Layer" class="s0" d="m9.9 73.1h5v5.1h-5z" />
		<path id="Layer" class="s0" d="m9.9 78.2h5v5h-5z" />
		<path id="Layer" class="s0" d="m4.8 83.2h5.1v5.1h-5.1z" />
		<path id="Layer" class="s0" d="m4.8 88.3h5.1v5.1h-5.1z" />
		<path id="Layer" class="s0" d="m4.8 93.4h5.1v5h-5.1z" />
		<path id="Layer" class="s0" d="m100.8 180.2h5.1v5h-5.1z" />
		<path id="Layer" class="s0" d="m95.8 180.2h5v5h-5z" />
		<path id="Layer" class="s0" d="m90.7 180.2h5.1v5h-5.1z" />
		<path id="Layer" class="s0" d="m85.7 180.2h5v5h-5z" />
		<path id="Layer" class="s0" d="m80.6 180.2h5.1v5h-5.1z" />
		<path id="Layer" class="s0" d="m75.6 175.1h5v5.1h-5z" />
		<path id="Layer" class="s0" d="m70.5 175.1h5.1v5.1h-5.1z" />
		<path id="Layer" class="s0" d="m65.4 175.1h5.1v5.1h-5.1z" />
		<path id="Layer" class="s0" d="m60.4 170h5v5.1h-5z" />
		<path id="Layer" class="s0" d="m55.3 170h5.1v5.1h-5.1z" />
		<path id="Layer" class="s0" d="m50.3 165h5v5h-5z" />
		<path id="Layer" class="s0" d="m45.2 165h5.1v5h-5.1z" />
		<path id="Layer" class="s0" d="m40.2 159.9h5v5.1h-5z" />
		<path id="Layer" class="s0" d="m35.1 154.9h5.1v5h-5.1z" />
		<path id="Layer" class="s0" d="m30.1 149.8h5v5.1h-5z" />
		<path id="Layer" class="s0" d="m25 144.7h5.1v5.1h-5.1z" />
		<path id="Layer" class="s0" d="m20 137.5h5v7.2h-5z" />
		<path id="Layer" class="s0" d="m20 132.4h5v5.1h-5z" />
		<path id="Layer" class="s0" d="m14.9 127.4h5.1v5h-5.1z" />
		<path id="Layer" class="s0" d="m14.9 122.3h5.1v5.1h-5.1z" />
		<path id="Layer" class="s0" d="m9.9 117.2h5v5.1h-5z" />
		<path id="Layer" class="s0" d="m9.9 112.2h5v5h-5z" />
		<path id="Layer" class="s0" d="m9.9 107.1h5v5.1h-5z" />
		<path id="Layer" class="s0" d="m4.8 102h5.1v5.1h-5.1z" />
		<path id="Layer" class="s0" d="m4.8 97h5.1v5h-5.1z" />
		<path id="Layer" class="s0" d="m4.8 91.9h5.1v5.1h-5.1z" />
		<path id="Layer" class="s0" d="m85.6 185.3h-5v-5.1h5z" />
		<path id="Layer" class="s0" d="m90.7 185.3h-5.1v-5.1h5.1z" />
		<path id="Layer" class="s0" d="m95.7 185.3h-5v-5.1h5z" />
		<path id="Layer" class="s0" d="m100.8 185.3h-5.1v-5.1h5.1z" />
		<path id="Layer" class="s0" d="m105.9 185.3h-5.1v-5.1h5.1z" />
		<path id="Layer" class="s0" d="m110.9 180.2h-5v-5.1h5z" />
		<path id="Layer" class="s0" d="m116 180.2h-5.1v-5.1h5.1z" />
		<path id="Layer" class="s0" d="m121 180.2h-5v-5.1h5z" />
		<path id="Layer" class="s0" d="m126.1 175.1h-5.1v-5h5.1z" />
		<path id="Layer" class="s0" d="m131.1 175.1h-5v-5h5z" />
		<path id="Layer" class="s0" d="m136.2 170.1h-5.1v-5.1h5.1z" />
		<path id="Layer" class="s0" d="m141.2 170.1h-5v-5.1h5z" />
		<path id="Layer" class="s0" d="m146.3 165h-5.1v-5.1h5.1z" />
		<path id="Layer" class="s0" d="m151.3 159.9h-5v-5h5z" />
		<path id="Layer" class="s0" d="m156.4 154.9h-5.1v-5.1h5.1z" />
		<path id="Layer" class="s0" d="m161.4 149.8h-5v-5h5z" />
		<path id="Layer" class="s0" d="m166.5 144.8h-5.1v-7.3h5.1z" />
		<path id="Layer" class="s0" d="m166.5 137.5h-5.1v-5h5.1z" />
		<path id="Layer" class="s0" d="m171.6 132.5h-5.1v-5.1h5.1z" />
		<path id="Layer" class="s0" d="m171.6 127.4h-5.1v-5.1h5.1z" />
		<path id="Layer" class="s0" d="m176.6 122.3h-5v-5h5z" />
		<path id="Layer" class="s0" d="m176.6 117.3h-5v-5.1h5z" />
		<path id="Layer" class="s0" d="m176.6 112.2h-5v-5.1h5z" />
		<path id="Layer" class="s0" d="m181.7 107.1h-5.1v-5h5.1z" />
		<path id="Layer" class="s0" d="m181.7 102.1h-5.1v-5.1h5.1z" />
		<path id="Layer" class="s0" d="m181.7 97h-5.1v-5.1h5.1z" />
	</g>
</svg>