<svg version="1.2" xmlns="http://www.w3.org/2000/svg" viewBox="0 0 420 300" width="460" height="340">
	<title>Dashboard-svg</title>
	<style>
		.s0 { fill: #c3b6d3 } 
		.s1 { fill: #ffffff } 
		.s2 { fill: #ffc285 } 
		.s3 { fill: #c60c88 } 
		.s4 { fill: #a89dba } 
		.s5 { fill: #dd2e9b } 
		.s6 { fill: #e7dfef } 
	</style>
	<g id="Board">
		<path id="Layer" class="s0" d="m25.7 269.3v-157.9h3.9v-4.2h3.9v-4.3h3.9v-4.2h366.9v4.2h3.9v4.3h3.9v4.2h3.9v157.9h-3.9v4.3h-3.9v4.2h-3.9v4.3h-366.9v-4.3h-3.9v-4.2h-3.9v-4.3z" />
		<path id="Layer" class="s1" d="m25.7 256.5v-157.8h3.9v-4.3h3.9v-4.3h3.9v-4.2h366.9v4.2h3.9v4.3h3.9v4.3h3.9v157.8h-3.9v4.3h-3.9v4.3h-3.9v4.2h-366.9v-4.2h-3.9v-4.3h-3.9v-4.3z" />
	</g>
	<g id="lady">
		<g id="Layer">
			<path id="Layer" class="s2" d="m251.3 232.2v3.9v3.7h-3.7v3.8v3.7v3.8v3.8h-3.9v3.7h-33.8v-11.3h-3.7v-3.7v-3.8v-3.7h3.7v-3.9v-3.7v-3.7h3.7v-3.8h3.9v-3.8h3.7v-3.7h3.7h3.8h3.8h3.8v3.7h3.7h3.7v3.8h3.9v3.8v3.7v3.7z" />
			<path id="Layer" class="s3" d="m243.7 258.6v3.8v3.8v3.7h-3.7v3.7v3.8v3.8v3.8h-3.7v3.7v3.8v3.8v3.7h-3.8h-3.8h-3.8h-3.7h-3.7h-3.9h-3.7h-3.7h-3.8h-3.8v-3.7v-3.8v-3.8v-3.7h1.7v-15.1h-1.7v-3.7h3.8v-3.8v-3.8v-3.7v-3.8h3.8v-3.8h3.7v3.8v3.8h3.7v3.7h3.9h3.7h3.7h3.8h3.8h3.8h3.7z" />
		</g>
		<path id="Layer" class="s2" d="m202.4 126.1v3.8v3.8v3.7v3.7v3.8v3.8v3.8v3.7v3.8h-3.8v3.8v3.7v3.7h-3.7v3.8v3.8v3.7h-3.8v3.8v3.8h-3.3v3.8h-3.8v3.7h-3.8v3.7h-3.7v3.8h-3.8v3.8h-3.8v3.7h-3.7v3.8h-3.8v3.8h-3.7h-3.8v3.7h-3.8h-0.8h-2.9h-0.8h-3h-0.9h-2.9h-0.8h-2.9h-0.8h-2.9h-0.9h-3h-0.8h-2.9h-0.9h-2.9h-0.8h-2.9h-0.8h-3h-0.9h-2.9h-0.8h-2.9h-0.8h-2.9h-0.9h-3h-0.8h-2.9h-0.8h-2.9h-0.9h-2.9h-0.8h-3h-0.9h-2.9h-0.8h-2.9h-0.8h-2.9h-0.9h-3h-0.8h-1.7h-1.2h-0.8h-3.8v-3.7h-3.7h-3.8v-3.8h-3.8v-3.8h-3.7v-3.7h-3.8v-3.8h-3.8v-3.8h-3.7v-3.7h-3.8v-3.7h-3.7v-3.8h-3.4v-3.8v-3.8h-3.8v-3.7v-3.8v-3.8h-3.7v-3.7v-3.7v-3.8h-3.8v-3.8v-3.7v-3.8v-3.8v-3.8v-3.7v-3.7v-3.8v-3.8h3.8v-3.7v-3.8v-3.8v-3.7v-3.8h3.7v-3.7v-3.9v-3.7h3.8v-3.7v-3.8h3.8v-3.8v-3.7h3.8v-3.8h3.7v-3.7h3.7v-3.8h3.8v-3.8h3.8v-3.7h3.7h3.8v-3.8h18.9h3.7h3.7h3.8h3.8h3.7h3.8h3.7h3.8h3.8h3.7h3.8h3.8h3.7h3.8h3.7h3.8h3.8h3.7h3.8h3.8h3.7h3.8h3.7h0.9h2.9v3.8h3.8h3.7v3.7h3.8v3.8h3.8v3.8h3.7v3.7h3.7v3.8h3.8v3.7v3.8h3.8v3.8v3.7h3.8v3.7v3.9v3.7h3.7v3.8v3.7v3.8v3.8v3.7z" />
		<path id="Layer" class="s4" d="m202.4 130.3v3.8v3.7v3.8v3.7v3.8v3.8v3.7v3.8v3.8h-3.8v3.7v3.7v3.9h-3.7v3.7v3.8v3.7h-3.8v3.8v3.8h-3.3v3.7h-3.8h-3.8v-3.7h-0.4h-3.7v-3.8h-3.8v-3.8h-3.8v3.8h-3.7v3.8h-3.8v3.7h-3.8h-3.7h-3.8v-3.7h-3.7v-3.8h-3.8v-3.8h-3.8v3.8h-3.7v3.8h-3.8v3.7h-3.8h-3.7h-3.8v-3.7h-3.7v-3.8h-3.8v-3.8h-3.8v3.8h-3.7v3.8h-3.8v3.7h-3.8h-3.7h-3.8v-3.7h-3.7v-3.8h-3.8v-3.8h-3.8v3.8h-3.7v3.8h-3.7v3.7h-3.9h-3.7h-3.8v-3.7h-3.7v-3.8h-3.8v-3.8h-3.8v3.8h-3.7v3.8h-3.8v3.7h-3.8h-3.7h-3.7v-3.7h-3.8v-3.8h-3.8v-3.8h-3.8v-3.7v-3.8v-3.7h-3.7v-3.9v-3.7v-3.7h-3.8v-3.8v-3.8v-3.7v-3.8v-3.8v-3.7v-3.8v-3.7v-3.8h3.8v-3.8v-3.7v-3.8v-3.8v-3.7h3.7v-3.8v-3.7v-3.8h3.8v-3.8v-3.7h3.8v-3.8v-3.8h3.8v-3.7h3.7v-3.8h3.7v-3.7h3.8v-3.8h3.8v-3.8h3.7h3.8v-3.7h18.9h3.7h3.7h3.8h3.8h3.7h3.8h3.7h3.8h3.8h3.7h3.8h3.8h3.7h3.8h3.7h3.8h3.8h3.7h3.8h3.8h3.7h3.8h3.7h0.9h2.9v3.7h3.8h3.7v3.8h3.8v3.8h3.8v3.7h3.7v3.8h3.7v3.7h3.8v3.8v3.8h3.8v3.7v3.8h3.8v3.8v3.7v3.8h3.7v3.7v3.8v3.8v3.7v3.8z" />
		<path id="Layer" class="s0" d="m202.4 126.1v3.8v3.8v3.7v3.7v3.8v3.8v3.8v3.7v3.8h-3.8v3.8v3.7v3.7h-3.7v3.8v3.8v3.7h-3.8v3.8v3.8h-3.3v3.8h-3.8h-3.8v-3.8h-0.4h-3.7v-3.8h-3.8v-3.8h-3.8v3.8h-3.7v3.8h-3.8v3.8h-3.8h-3.7h-3.8v-3.8h-3.7v-3.8h-3.8v-3.8h-3.8v3.8h-3.7v3.8h-3.8v3.8h-3.8h-3.7h-3.8v-3.8h-3.7v-3.8h-3.8v-3.8h-3.8v3.8h-3.7v3.8h-3.8v3.8h-3.8h-3.7h-3.8v-3.8h-3.7v-3.8h-3.8v-3.8h-3.8v3.8h-3.7v3.8h-3.7v3.8h-3.9h-3.7h-3.8v-3.8h-3.7v-3.8h-3.8v-3.8h-3.8v3.8h-3.7v3.8h-3.8v3.8h-3.8h-3.7h-3.7v-3.8h-3.8v-3.8h-3.8v-3.8h-3.8v-3.7v-3.8v-3.8h-3.7v-3.7v-3.7v-3.8h-3.8v-3.8v-3.7v-3.8v-3.8v-3.8v-3.7v-3.7v-3.8v-3.8h3.8v-3.7v-3.8v-3.8v-3.7v-3.8h3.7v-3.7v-3.9v-3.7h3.8v-3.7v-3.8h3.8v-3.8v-3.7h3.8v-3.8h3.7v-3.7h3.7v-3.8h3.8v-3.8h3.8v-3.7h3.7h3.8v-3.8h18.9h3.7h3.7h3.8h3.8h3.7h3.8h3.7h3.8h3.8h3.7h3.8h3.8h3.7h3.8h3.7h3.8h3.8h3.7h3.8h3.8h3.7h3.8h3.7h0.9h2.9v3.8h3.8h3.7v3.7h3.8v3.8h3.8v3.8h3.7v3.7h3.7v3.8h3.8v3.7v3.8h3.8v3.8v3.7h3.8v3.7v3.9v3.7h3.7v3.8v3.7v3.8v3.8v3.7z" />
		<g id="Layer">
			<path id="Layer" class="s2" d="m209.9 156.2v3.8v3.8v3.7v3.7h-3.7v3.8h-3.8v3.8h-3.8h-3.7v-3.8v-3.8h3.7v-3.7v-3.7v-3.8h3.8v-3.8v-3.7h3.8v3.7z" />
			<path id="Layer" class="s2" d="m14.3 171.2h3.7v3.8v3.8h-3.7h-3.8v-3.8h-3.8v-3.8h-3.7v-3.7v-3.7v-3.8v-3.8h3.7v-3.7h3.8v3.7v3.8h3.8v3.8v3.7z" />
		</g>
		<g id="Layer">
			<path id="Layer" class="s4" d="m161 62.2h7.5v3.7v3.8h-3.7v3.8h-3.4h-0.4v3.7h-3.8v3.8h-3.7h-3.8v3.7h-3.7h-3.8v3.8h-3.8h-3.7h-3.8v3.8h-3.8h-3.7h-3.8h-3.7h-3.8h-3.8h-3.7h-3.8h-3.8v-3.8h-3.7h-3.8h-3.7v-3.8h-3.8h-3.8v-3.7h-3.7h-3.7v-3.8h-3.9v-3.7h-3.7v-3.8h-3.8v-3.8h-3.7v-25.1h3.7v-3.7h3.8v-3.8h3.7v-3.7h3.9v-3.8h3.7h3.7v-3.8h3.8h3.8v-3.7h3.7h3.8h3.7v-3.7h3.8h3.8h3.7h3.8h3.8h3.7h3.8h3.7h3.8v3.7h3.8h3.7h3.8l-19.3 3.7h3.8h3.8v3.8h3.8h3.7v3.8h3.7v3.7h0.5h3.4v1.3h15.4z" />
			<path id="Layer" class="s0" d="m161 33.3v25.1h-3.8v3.8h-3.7v3.7h-3.4h-0.4v3.8h-3.7v3.8h-3.8h-3.8v3.7h-3.7h-3.8v3.8h-3.8h-3.7h-3.8v3.7h-3.7h-3.8h-3.8h-3.7h-3.8h-3.8h-3.7v-3.7h-3.8h-3.7h-3.8v-3.8h-3.8h-3.7v-3.7h-3.7h-3.9v-3.8h-3.7v-3.8h-3.8v-3.7h-3.7v-3.8h-3.8v-25.1h3.8v-3.7h3.7v-3.8h3.8v-3.8h3.7v-3.7h3.9h3.7v-3.7h3.7h3.8v-3.9h3.8h3.7h3.8v-3.7h3.7h3.8h3.8h3.7h3.8h3.8h3.7v3.7h3.8h3.7h3.8v3.9h3.8h3.7v3.7h3.8h3.8v3.7h3.7v3.8h0.4h3.4v3.8h3.7v3.7z" />
		</g>
		<path id="Layer" class="s5" d="m221.2 292.3v7.7h-208.1h-0.3h-4v-16.3h4v-3.4h3.8v-3.8v-3.8h3.8v-3.8h3.8v-3.8h3.7v-3.8h0.8v-3.7h3h0.8v-3.8h3h0.8v-3.8h3v-0.1h0.7v-3.6h3.1v-0.2h0.7v-3.6h3.8v-3.8h3.8v-3.8h3.8v-3.8h3.8v-3.3h3.8h3.8v-3.8h3.7h3.9h3.7v-3.8h3.8h3.8h3.8v-3.8h3.8h3.8h3.7h3.8h3.8h3.9h3.7h3.8h3.7v3.8h3.8h3.9h3.7h3.8h3.7v3.8h3.8h3.9h3.8v3.8h3.7h3.8v3.7h3.8h3.8v3.8h3.8v3.8h3.8v3.8h3.7v3.8h3.8v3.8h3.8v3.7v0.7h3.8v3.6v0.1h3.4v3.8h-0.1v3.4h0.1v-3.4h3.7v3.8h-0.1v3.4h3.8v3.8h3.8v3.8h3.7v3.8h3.8v3.7h3.8v3.9v3.7z" />
	</g>
	<path id="Board Rectangle" class="s6" d="m248.9 189.7h138.7v5.6h-138.7z" />
	<path id="SORT BY" fill-rule="evenodd" class="s0" d="m278.8 113.8l0.5 0.1v1.9c0.9 0.3 1.9 0.4 3 0.4c1.7 0 3.1-1 3.1-2.8c0-3.1-6.9-3.2-6.9-7.2c0-2.1 1.9-3.4 4.2-3.4c1.2 0 2 0.1 3 0.4l0.1-0.3l0.5 0.1l-0.5 2.7l-0.5-0.1v-1.9c-0.9-0.3-1.5-0.4-2.5-0.4c-1.2 0-2.4 0.9-2.4 2.5c0 3.2 6.9 3.5 6.9 7.3c0 2.9-2.8 3.7-4.6 3.7c-1.6 0-2.6-0.1-4.3-0.6zm17.6-11.1c4.3 0 6.9 3.1 6.9 6.8c0 3.8-2.7 7.2-6.9 7.2c-4.4 0-7.2-3.2-7.2-7.1c0-3.8 2.9-6.9 7.2-6.9zm0 13.5c3.3 0 5-3.4 5-6.7c0-3.2-1.7-6.2-5-6.2c-3.4 0-5.2 3-5.2 6.2c0 3.4 1.8 6.7 5.2 6.7zm8.4-13.3h1.6c1.4 0 2.6-0.2 4-0.2c2.2 0 4.9 0.7 4.9 3.3c0 2.1-1.8 2.9-3.5 3.4l3.5 5.3c0.7 1.1 1.2 1.3 2 1.3v0.5h-1.7c-0.7 0-1.4-0.1-1.9-0.8l-3.9-6h-1.4v6.3h1.6v0.5h-4.5v-0.5h0.9v-12.6h-1.6zm8.5 3.2c0-1.7-0.9-2.9-3.8-2.9c-0.6 0-1.1 0.1-1.1 0.1v5.9c2.8 0 4.9-0.9 4.9-3.1zm4.7-3.3l0.4 0.1h9.5v-0.2l0.6 0.2l-0.6 2.7l-0.5-0.1v-2.2h-3.4v12.7h1.6v0.5h-4.5v-0.5h0.9v-12.7h-3.1l-1 2.3l-0.5-0.1zm17.9 0.1h1.6c1.4 0 2.6-0.1 4-0.1c2.1 0 4.8 0.7 4.8 3.2c0 1.7-1.3 2.7-3 3.3c2.5 0.3 3.8 1.7 3.8 3.6c0 2.4-1.9 3.8-5.2 3.8c-1.3 0-2.9-0.1-4.4-0.1h-0.9v-0.5h0.9v-12.7h-1.6zm5.3 13.3c2.7 0 3.9-1.3 3.9-3.2c0-3.1-2.8-3.2-5.6-3.2v6.3c0 0 1 0.1 1.7 0.1zm3.2-10.1c0-1.7-1-2.8-3.9-2.8c-0.6 0-1 0.1-1 0.1v5.9c2.8 0 4.9-0.9 4.9-3.2zm3.2-3.2h4.5v0.5h-0.9l3.6 5.4l3.5-5.4h-1.6v-0.5h3.1v0.5h-0.9l-3.8 5.9v6.8h1.5v0.5h-4.4v-0.5h0.9v-6.4l-4.1-6.3h-1.4z" />
</svg>