<svg version="1.2" xmlns="http://www.w3.org/2000/svg" viewBox="0 0 236 236" width="236" height="236">
	<title>Logo</title>
	<style>
		.s0 { fill: #633585 } 
		.s1 { fill: #9b6dbf } 
		.s2 { fill: #ffffff } 
	</style>
	<g id="Logo">
		<path id="Layer" class="s0" d="m0 118c0-65.2 52.8-118 118-118c65.2 0 118 52.8 118 118c0 65.2-52.8 118-118 118c-65.2 0-118-52.8-118-118z" />
		<path id="Layer" class="s1" d="m4.9 118c0-62.5 50.6-113.1 113.1-113.1c62.5 0 113.1 50.6 113.1 113.1c0 62.5-50.6 113.1-113.1 113.1c-62.5 0-113.1-50.6-113.1-113.1z" />
		<path id="Layer" class="s2" d="m80.1 56.7v2l-10.9 0.1l0.2 36h-2.4l-0.3-36h-10.9v-2z" />
		<path id="Layer" class="s2" d="m86.8 58.7l0.1 15.9l15.4-0.1v2l-15.4 0.1l0.1 16l17-0.1v2l-19.4 0.1l-0.2-38l19.4-0.1v2z" />
		<path id="Layer" class="s2" d="m137.3 59.2q4.4 3.2 6.4 8.8h-2.5c-1-3-2.9-5.3-5.5-7.1c-2.5-1.7-5.7-2.6-9.5-2.6c-2.9 0-5.4 0.8-7.8 2.1c-2.3 1.4-4.1 3.5-5.4 6c-1.4 2.6-2 5.7-2 9.2q0 5.1 2.1 9c1.4 2.5 3.2 4.5 5.5 5.9c2.4 1.4 5 2 7.8 2q5.7 0 9.5-2.7c2.5-1.8 4.3-4.2 5.4-7h2.5q-1.9 5.6-6.3 8.8c-2.9 2.1-6.6 3.2-11.1 3.2c-3.5 0-6.5-0.8-9.3-2.4c-2.7-1.6-4.8-3.9-6.3-6.8c-1.6-2.9-2.3-6.3-2.3-10c0-3.8 0.7-7.1 2.2-10.1c1.5-2.9 3.6-5.3 6.3-6.9c2.7-1.7 5.8-2.5 9.2-2.5c4.5-0.1 8.1 1 11.1 3.1z" />
		<path id="Layer" class="s2" d="m177 56.2l0.2 38h-2.4l-0.1-18.5l-22.2 0.1l0.2 18.5h-2.5l-0.2-38h2.4l0.1 17.4l22.2-0.1l-0.2-17.4z" />
		<path id="Layer" class="s2" d="m26.4 136.7h12.7l0.1 5.8l-20.4 0.1l-0.2-38.1h7.6z" />
		<path id="Layer" class="s2" d="m50 104.4l0.2 38.1h-7.5l-0.3-38.1z" />
		<path id="Layer" fill-rule="evenodd" class="s2" d="m82.8 125.9q2 2.6 2 6c0 3.2-1 5.7-3.1 7.6q-3.2 2.8-9.3 2.8l-16.3 0.1l-0.3-38.1l16.1-0.1c3.8 0 6.8 0.8 8.8 2.5c2.1 1.7 3.1 4.1 3.2 7.1c0 2.4-0.6 4.4-1.8 5.9c-1.3 1.5-2.9 2.5-4.9 2.9c2.3 0.5 4.2 1.6 5.6 3.3zm-19.3-5.7h6.9q2.9 0 4.3-1.3c1-0.8 1.5-2.1 1.4-3.6c0-1.6-0.4-2.8-1.5-3.7q-1.4-1.3-4.4-1.3l-6.8 0.1zm12 14.5q1.6-1.4 1.6-3.9c0-1.7-0.6-2.9-1.7-3.9c-1-0.9-2.6-1.3-4.6-1.3l-7.2 0.1l0.1 10.4h7.2c2-0.1 3.5-0.5 4.6-1.4z" />
		<path id="Layer" fill-rule="evenodd" class="s2" d="m109 142.1l-8.9-14.8h-3.4v14.9h-7.5l-0.2-38l14.5-0.1c4.4 0 7.8 1 10.1 3.2c2.4 2.2 3.5 5 3.5 8.5c0 2.9-0.7 5.3-2.3 7.3q-2.4 2.9-6.9 3.9l9.6 15.1zm-12.4-20h6.3c4.3 0 6.5-2 6.5-5.9q0-2.7-1.6-4.2c-1.1-1-2.7-1.6-5-1.5h-6.2z" />
		<path id="Layer" fill-rule="evenodd" class="s2" d="m144.5 134.3l-15.3 0.1l-2.7 7.7h-8l13.9-37.7h8.7l14.1 37.6h-8zm-2.1-5.7l-5.7-16.1l-5.5 16.2z" />
		<path id="Layer" fill-rule="evenodd" class="s2" d="m178.1 141.8l-9-14.8h-3.4l0.1 14.8l-7.6 0.1l-0.2-38.1l14.5-0.1c4.4 0 7.8 1.1 10.2 3.2c2.3 2.2 3.5 5 3.5 8.5c0 2.9-0.8 5.3-2.4 7.3q-2.4 2.9-6.9 3.9l9.6 15.2zm-12.4-20.1h6.3c4.3 0 6.5-1.9 6.5-5.8q0-2.7-1.6-4.3c-1.1-1-2.7-1.5-5-1.4h-6.2z" />
		<path id="Layer" class="s2" d="m220.8 103.5l-12.7 24.8v13.3l-7.6 0.1l-0.1-13.3l-13-24.7l8.7-0.1l8.2 16.6l8-16.7z" />
		<path id="Layer" fill-rule="evenodd" class="s2" d="m83 157.1l-11.5 18.2c-0.1 0.3-0.4 0.4-0.6 0.4h-6.2c-0.2 0-0.4-0.1-0.5-0.4l-0.7-3.8c-0.2-1.1-1.1-1.8-2.3-1.8h-0.1c-0.6 0-1.1-0.4-1.2-1.1l-0.2-0.8c-0.1-0.3 0.2-0.6 0.5-0.6h2.4l-0.1-0.6c-0.2-1-1.1-1.8-2.2-1.8h-2.2c-0.6 0-1.1-0.4-1.2-1l-0.2-0.8c0-0.4 0.2-0.6 0.5-0.6h4.5l-0.1-0.6c-0.3-1.1-1.2-1.8-2.3-1.8h-3.5c-1.1 0-2-0.8-2.2-1.8l-0.3-1.3c0-0.3 0.2-0.6 0.5-0.6h10.8c0 0 0.4 0 0.9 0.1c1.2 0.4 2.2 1.4 2.5 2.7l1.6 9l5.7-9.1c1.1-1.7 2.9-2.7 4.8-2.7h2.5c0.3 0.1 0.5 0.5 0.4 0.8zm2.3-0.7h5.5c0.3 0 0.6 0.3 0.5 0.6l-3.8 18.2c-0.1 0.4-0.5 0.6-0.8 0.6h-5.5c-0.4 0-0.6-0.2-0.5-0.6l3.8-18.1c0.1-0.4 0.4-0.7 0.8-0.7zm22.3 14.9l-0.8 3.8c-0.1 0.4-0.4 0.7-0.8 0.7h-16.6c-0.3 0-0.6-0.3-0.5-0.6v-0.1c0.5-2.2 1.6-4.2 3.3-5.7l8.6-8h-8.2c-0.3 0-0.5-0.3-0.4-0.6l0.8-3.8c0-0.3 0.4-0.6 0.8-0.6h15.9c0.3 0 0.6 0.3 0.5 0.6c-0.5 2.2-1.6 4.2-3.3 5.7l-8.5 8h8.7c0.3 0 0.5 0.3 0.5 0.6zm44.4-3.5h-12.4c0 1 0.5 1.7 1.1 2.3q1.2 0.8 3 0.8c0.9 0 1.7-0.1 2.5-0.4c0.5-0.2 1.1-0.5 1.7-0.9c0.4-0.2 0.9-0.1 1.1 0.2l1.8 2.5c0.3 0.4 0.3 0.9-0.1 1.2c-2.3 1.7-5 2.6-8.3 2.6q-3.3 0-5.7-1.3q-2.2-1.3-3.2-3.6q-0.9-2.3-0.3-5.1c0.4-2 1.2-3.7 2.5-5.2c1.2-1.5 2.7-2.7 4.5-3.5q2.7-1.3 5.7-1.3q2.9 0 5 1.1c1.4 0.8 2.4 2 3 3.5c0.6 1.6 0.6 3.3 0.2 5.5c0-0.1 0 0 0 0c-0.2 0.9-1.1 1.6-2.1 1.6zm-9.9-6c-0.8 0.6-1.4 1.4-1.8 2.4h7.9q0-1.5-0.8-2.4c-0.6-0.6-1.4-0.9-2.5-0.9c-1.1 0-2 0.3-2.8 0.9zm24.4-5c0.8-0.4 1.8-0.5 2.8-0.6c0.5-0.1 1 0.5 0.9 1l-0.9 4.3c-0.1 0.4-0.5 0.7-0.9 0.7q-0.5-0.1-0.8-0.1q-2.2 0-3.7 1.2c-0.9 0.8-1.6 2-2 3.6l-1.7 8.2c-0.1 0.4-0.4 0.7-0.8 0.7h-5.5c-0.3 0-0.6-0.3-0.5-0.6l3.8-18.2c0.1-0.3 0.5-0.6 0.8-0.6h4.8c0.5 0 0.9 0.5 0.8 1l-0.3 1.3c0.9-0.9 1.9-1.5 3.2-1.9zm-34.7 9.3q-0.6 2.9-2.4 5.2q-1.7 2.3-4.1 3.6c-1.6 0.8-3.3 1.2-5.1 1.2q-3.4 0-5-2l-1.8 8.3c-0.1 0.4-0.4 0.6-0.8 0.6h-5.5c-0.3 0-0.5-0.2-0.5-0.6l5.4-25.3c0.1-0.4 0.4-0.7 0.8-0.7h4.8c0.5 0 0.9 0.5 0.8 1.1l-0.2 0.9c1.6-1.5 3.6-2.3 6.2-2.3c1.7 0 3.2 0.5 4.5 1.3c1.3 0.8 2.1 1.9 2.7 3.5c0.7 1.4 0.7 3.2 0.2 5.2zm-7.2-3.4c-0.6-0.8-1.5-1.2-2.7-1.2q-1.8 0-3.2 1.2c-1 0.8-1.6 1.9-1.9 3.4q-0.4 2.1 0.5 3.3c0.5 0.8 1.4 1.2 2.6 1.2q1.8 0 3.2-1.2c1-0.8 1.6-1.9 1.9-3.3q0.5-2.1-0.4-3.4zm51.5 6c-0.2 0.7-0.1 1.3 0.2 1.6c0.3 0.4 0.7 0.6 1.3 0.6c0.5 0 0.9-0.1 1.3-0.2c0.5-0.2 1 0.2 1.1 0.7l0.4 3c0.1 0.4-0.1 0.8-0.5 0.9c-0.5 0.3-1 0.4-1.7 0.6c-0.8 0.1-1.7 0.2-2.6 0.2q-3.9 0-5.5-1.8c-1.1-1.3-1.4-3.1-0.8-5.6l3.5-16.5c0-0.4 0.4-0.7 0.8-0.7h5.5c0.3 0 0.5 0.3 0.5 0.6l-0.9 4.3h3.2c0.5 0 0.9 0.5 0.8 1l-0.7 3.2c-0.1 0.3-0.5 0.6-0.8 0.6h-3.6z" />
	</g>
</svg>